<?xml version="1.0" encoding="utf-8"?>
<!-- Generator: Adobe Illustrator 17.0.2, SVG Export Plug-In . SVG Version: 6.00 Build 0)  -->
<!DOCTYPE svg PUBLIC "-//W3C//DTD SVG 1.1//EN" "http://www.w3.org/Graphics/SVG/1.1/DTD/svg11.dtd">
<svg version="1.1" id="Rectangle_arrondi_6_copie_5_1_"
	 xmlns="http://www.w3.org/2000/svg" xmlns:xlink="http://www.w3.org/1999/xlink" x="0px" y="0px" width="342px" height="116px"
	 viewBox="0 0 342 116" enable-background="new 0 0 342 116" xml:space="preserve">
<g id="Rectangle_arrondi_6_copie_5">
	<g>
		<path fill-rule="evenodd" clip-rule="evenodd" fill="#000" d="M122.003,32.316c-2.194-2.498-4.826-4.342-7.894-5.531
			c-3.071-1.19-6.399-1.784-9.988-1.784c-2.392,0-4.566,0.279-6.519,0.833c-1.955,0.556-3.708,1.308-5.263,2.26
			c-1.555,0.952-2.891,2.022-4.007,3.212c-1.118,1.19-2.075,2.42-2.871,3.688c0-0.238-0.06-0.792-0.179-1.665
			c-0.115-0.84-0.23-1.719-0.346-2.633v-1.406c0-1.657-1.343-3-3-3H77c-1.657,0-3,1.343-3,3v2.835c0,0.393,0.081,0.766,0.218,1.11
			v82.291c0.877,0.158,1.854,0.277,2.93,0.357c1.076,0.078,2.052,0.119,2.93,0.119c0.877,0,1.854-0.041,2.93-0.119
			c1.077-0.08,2.093-0.199,3.05-0.357V87.57c1.355,0.396,2.949,0.714,4.784,0.952c1.833,0.238,3.628,0.357,5.383,0.357
			c10.445,0,18.519-2.953,24.221-8.862c5.7-5.907,8.552-14.096,8.552-24.564c0-5.234-0.619-9.773-1.854-13.62
			C125.909,37.986,124.195,34.814,122.003,32.316z M115.065,66.218c-0.998,2.896-2.353,5.293-4.067,7.197
			c-1.716,1.903-3.768,3.312-6.16,4.223c-2.392,0.913-5.024,1.368-7.894,1.368c-2.553,0-4.626-0.119-6.22-0.357
			c-1.596-0.238-3.151-0.634-4.665-1.19V52.716c0-3.013,0.437-5.609,1.316-7.792c0.877-2.18,2.033-3.985,3.469-5.412
			c1.435-1.427,3.069-2.498,4.904-3.212c1.833-0.714,3.747-1.071,5.741-1.071c5.341,0,9.19,1.864,11.543,5.591
			c2.351,3.728,3.529,8.764,3.529,15.107C116.56,59.894,116.061,63.324,115.065,66.218z M188.075,32.473
			c-2.195-2.493-4.827-4.334-7.896-5.521c-3.071-1.187-6.401-1.781-9.99-1.781c-2.393,0-4.567,0.278-6.521,0.831
			c-1.955,0.555-3.709,1.306-5.264,2.256s-2.892,2.018-4.008,3.206c-1.118,1.187-2.075,2.415-2.871,3.681
			c0-0.237-0.06-0.79-0.18-1.662c-0.008-0.057-0.016-0.118-0.024-0.175c0.119-0.323,0.194-0.668,0.194-1.032v-2.819
			c0-1.657-1.343-3-3-3h-4.939c-1.588,0-2.874,1.238-2.98,2.799c-0.105,0.019-0.214,0.034-0.318,0.055v86.216
			c0.877,0.158,1.854,0.276,2.931,0.356c1.077,0.078,2.053,0.119,2.931,0.119c0.877,0,1.854-0.041,2.931-0.119
			c1.077-0.08,2.094-0.199,3.051-0.356V87.623c1.355,0.395,2.95,0.712,4.786,0.95c1.834,0.237,3.629,0.356,5.384,0.356
			c10.448,0,18.524-2.948,24.227-8.845c5.702-5.896,8.554-14.07,8.554-24.518c0-5.224-0.619-9.755-1.854-13.595
			C191.982,38.133,190.267,34.966,188.075,32.473z M181.135,66.311c-0.998,2.89-2.354,5.284-4.068,7.183
			c-1.716,1.9-3.769,3.306-6.162,4.215c-2.393,0.911-5.025,1.365-7.896,1.365c-2.554,0-4.627-0.119-6.221-0.356
			c-1.596-0.237-3.152-0.633-4.666-1.187V52.835c0-3.007,0.437-5.599,1.316-7.777c0.877-2.176,2.034-3.977,3.47-5.402
			c1.436-1.425,3.07-2.493,4.905-3.206c1.834-0.712,3.748-1.069,5.743-1.069c5.343,0,9.192,1.861,11.545,5.58
			c2.352,3.721,3.529,8.747,3.529,15.079C182.631,60,182.132,63.423,181.135,66.311z M227.992,78.719
			c-0.918,0.08-1.735,0.119-2.453,0.119c-1.038,0-2.015-0.098-2.931-0.297c-0.918-0.197-1.716-0.633-2.393-1.306
			c-0.679-0.672-1.217-1.642-1.615-2.909c-0.4-1.265-0.598-3.007-0.598-5.224V0.475c-0.879-0.158-1.854-0.276-2.931-0.356
			C213.994,0.041,213.016,0,212.139,0c-0.879,0-1.854,0.041-2.931,0.119c-1.077,0.08-2.055,0.199-2.931,0.356v71.239
			c0,3.167,0.437,5.818,1.316,7.955c0.877,2.137,2.073,3.84,3.589,5.105c1.514,1.267,3.27,2.178,5.264,2.731
			c1.993,0.553,4.146,0.831,6.461,0.831c1.355,0,2.83-0.059,4.427-0.178c1.595-0.119,2.95-0.377,4.068-0.772
			c0-3.245-0.359-6.252-1.077-9.023C229.685,78.522,228.908,78.641,227.992,78.719z M284.381,33.045
			c-2.166-2.503-4.855-4.469-8.063-5.899c-3.21-1.43-6.941-2.145-11.193-2.145c-4.976,0-9.288,0.855-12.938,2.562
			c-3.652,1.709-6.679,4.013-9.086,6.912c-2.407,2.901-4.193,6.317-5.356,10.25C236.581,48.657,236,52.888,236,57.417
			c0,4.609,0.602,8.84,1.805,12.693c1.203,3.855,3.108,7.192,5.717,10.011c2.606,2.821,5.916,5.006,9.929,6.555
			c4.011,1.549,8.825,2.324,14.442,2.324c3.851,0,7.36-0.279,10.531-0.834c3.169-0.557,6.078-1.389,8.725-2.503
			c-0.081-1.669-0.322-3.356-0.722-5.065c-0.402-1.708-0.923-3.158-1.565-4.35c-5.136,1.987-10.551,2.979-16.247,2.979
			c-6.499,0-11.414-1.549-14.743-4.648c-3.33-3.099-5.075-7.985-5.235-14.659h42.002c0.079-0.873,0.16-1.926,0.241-3.158
			c0.079-1.231,0.12-2.402,0.12-3.516c0-4.052-0.562-7.806-1.685-11.263C288.191,38.527,286.547,35.547,284.381,33.045z
			 M248.757,51.101c0.56-5.244,2.146-9.335,4.754-12.276c2.606-2.939,6.358-4.41,11.253-4.41c2.486,0,4.633,0.458,6.439,1.371
			c1.805,0.914,3.289,2.127,4.453,3.635c1.162,1.51,2.046,3.277,2.648,5.304c0.602,2.026,0.903,4.153,0.903,6.376H248.757z
			 M340.863,62.63c-0.759-1.859-1.755-3.443-2.991-4.749c-1.238-1.306-2.713-2.393-4.427-3.265c-1.716-0.87-3.529-1.621-5.444-2.256
			l-5.264-1.781c-1.436-0.475-2.772-0.95-4.008-1.425c-1.237-0.475-2.333-1.048-3.29-1.722c-0.957-0.672-1.716-1.484-2.273-2.434
			c-0.559-0.95-0.838-2.096-0.838-3.443c0-2.612,1.137-4.432,3.41-5.462c2.273-1.028,4.885-1.544,7.837-1.544
			c2.791,0,5.403,0.297,7.837,0.891c2.432,0.594,4.526,1.208,6.281,1.84c0.638-1.345,1.176-2.809,1.615-4.393
			c0.437-1.582,0.737-3.165,0.897-4.749c-2.234-0.79-4.846-1.484-7.837-2.078c-2.991-0.594-6.042-0.89-9.153-0.89
			c-7.498,0-13.181,1.584-17.049,4.749c-3.87,3.167-5.803,7.441-5.803,12.823c0,4.037,1.155,7.243,3.47,9.617
			c2.312,2.375,6.021,4.512,11.127,6.411l4.188,1.544c1.514,0.475,2.931,0.97,4.247,1.484c1.316,0.516,2.471,1.128,3.47,1.84
			c0.996,0.712,1.795,1.584,2.393,2.612c0.598,1.03,0.897,2.336,0.897,3.918c0,1.425-0.38,2.712-1.137,3.859
			c-0.759,1.148-1.755,2.119-2.991,2.909c-1.238,0.792-2.692,1.386-4.367,1.781c-1.675,0.397-3.43,0.594-5.264,0.594
			c-2.554,0-5.126-0.256-7.717-0.772c-2.593-0.514-4.965-1.206-7.119-2.078c-0.639,1.584-1.217,3.187-1.735,4.809
			c-0.52,1.623-0.858,3.226-1.017,4.809c2.471,0.872,5.145,1.562,8.016,2.078c2.871,0.514,6.221,0.772,10.05,0.772
			c3.748,0,7.179-0.475,10.289-1.425c3.111-0.95,5.761-2.274,7.956-3.977c2.193-1.701,3.888-3.759,5.085-6.174
			c1.196-2.414,1.795-5.085,1.795-8.014C342,66.727,341.62,64.491,340.863,62.63z M62.532,29.456c0-1.657-1.343-3-3-3H45.705
			c-1.657,0-3,1.343-3,3v4.854c0,1.657,1.343,3,3,3h5.441v50.195c0.877,0.158,1.854,0.276,2.931,0.356
			c1.077,0.078,2.013,0.119,2.812,0.119c0.877,0,1.854-0.041,2.931-0.119c1.077-0.08,2.053-0.198,2.931-0.356V29.693l-0.219-0.032
			V29.456z M29.974,26.472c-0.472-0.075-1.036-0.133-1.695-0.173c-0.679-0.039,0.714-0.059,0.077-0.059
			c-4.307,0-7.837,0.991-10.588,2.968c-2.752,1.979-4.965,4.315-6.64,7.005c0-1.039-0.073-2.26-0.216-3.655
			c0.009-0.095,0.029-0.186,0.029-0.283v-2.819c0-1.657-1.343-3-3-3H3c-1.076,0-2.012,0.571-2.542,1.422
			C0.304,27.904,0.156,27.924,0,27.952v59.552c0.957,0.158,1.974,0.276,3.051,0.356c1.077,0.078,2.053,0.119,2.931,0.119
			c0.877,0,1.854-0.041,2.931-0.119c1.077-0.08,2.053-0.198,2.931-0.356V57.228c0-4.115,0.458-7.48,1.376-10.092
			c0.916-2.612,2.154-4.669,3.709-6.174c1.555-1.503,3.309-2.553,5.264-3.146c1.163-0.353,2.366-0.589,3.6-0.732
			c0.351,0.144,0.733,0.226,1.135,0.226h2.888c1.657,0,3-1.343,3-3v-4.854C32.817,27.853,31.556,26.555,29.974,26.472z M60.216,4.07
			H53.91c-1.657,0-3,1.343-3,3v6.211c0,1.657,1.343,3,3,3h6.307c1.657,0,3-1.343,3-3V7.07C63.216,5.413,61.873,4.07,60.216,4.07z"/>
	</g>
</g>
</svg>
